PathFileType	4	(X/Y/Z)	C:/Users/opensim2020/Desktop/walking_exp_matlab/subject01_walking04_straight_04.trc	
DataRate	CameraRate	NumFrames	NumMarkers	Units	OrigDataRate	OrigDataStartFrame	OrigNumFrames	
100.00	100.00	4	43	mm	100.00	2766	279	
Frame#	Time	LFHD			RFHD			LBHD			RBHD			C7			T10			CLAV			STRN			RBAK			LSHO			LUPA			LELB			LFRM			LWRA			LWRB			LFIN			RSHO			RUPA			RELB			RFRM			RWRA			RWRB			RFIN			LASI			RASI			LPSI			RPSI			LTHI			LKNE			LTIB			LANK			LHEE			LTOE			RTHI			RKNE			RTIB			RANK			RHEE			RTOE			*39			*40			*41			*42			
		X1	Y1	Z1	X2	Y2	Z2	X3	Y3	Z3	X4	Y4	Z4	X5	Y5	Z5	X6	Y6	Z6	X7	Y7	Z7	X8	Y8	Z8	X9	Y9	Z9	X10	Y10	Z10	X11	Y11	Z11	X12	Y12	Z12	X13	Y13	Z13	X14	Y14	Z14	X15	Y15	Z15	X16	Y16	Z16	X17	Y17	Z17	X18	Y18	Z18	X19	Y19	Z19	X20	Y20	Z20	X21	Y21	Z21	X22	Y22	Z22	X23	Y23	Z23	X24	Y24	Z24	X25	Y25	Z25	X26	Y26	Z26	X27	Y27	Z27	X28	Y28	Z28	X29	Y29	Z29	X30	Y30	Z30	X31	Y31	Z31	X32	Y32	Z32	X33	Y33	Z33	X34	Y34	Z34	X35	Y35	Z35	X36	Y36	Z36	X37	Y37	Z37	X38	Y38	Z38	X39	Y39	Z39	X40	Y40	Z40	X41	Y41	Z41	X42	Y42	Z42	X43	Y43	Z43	

70	0.690	1507.27856	1236.78748	1680.09070	1396.41650	1212.17700	1690.56824	1484.96997	1347.13721	1624.74390	1367.50049	1325.24377	1634.72192	1434.15063	1372.85498	1439.61133	1405.19836	1404.13843	1149.15125	1444.98755	1226.95947	1375.60962	1445.43042	1182.33557	1221.88586	1339.83557	1415.84094	1250.57690	1600.31189	1304.45435	1392.28809	1677.11633	1329.46936	1204.36304	1675.73230	1331.91333	1054.46313	1702.45117	1287.97180	950.29803	1685.48083	1202.97400	839.12750	1710.47131	1257.83972	832.28296	1719.37134	1206.56323	764.40076	1289.12549	1275.97144	1412.29895	1171.43616	1326.12988	1219.87610	1162.85962	1332.64465	1094.83447	1128.84009	1303.79700	977.97638	1148.37439	1224.06714	860.38324	1105.63635	1264.57141	863.21375	1109.60364	1229.06665	784.25269	1521.85608	1239.95032	942.87775	1305.49097	1221.07788	948.31506	1452.12646	1421.93787	952.80963	1308.35718	1406.35742	953.44415	1582.41748	1253.95264	617.05493	1569.89734	1249.33643	481.49939	1581.69897	1301.82251	297.47818	1535.14294	1324.03394	77.25615	1478.85962	1362.94287	46.50185	1553.41541	1176.64722	40.63098	1237.62000	1210.48608	616.27521	1253.81360	1185.15027	460.73792	1247.54395	1326.78479	356.35950	1287.06030	1473.28015	209.94078	1343.42358	1528.20435	210.25188	1273.81738	1411.63831	80.28868	1418.17932	1229.56433	1722.51550	-3101.85938	1973.07434	1023.28540	-3140.67090	2012.48108	1022.02618			 
71	0.700	1509.40808	1227.72314	1680.33337	1398.46277	1203.32983	1690.84106	1487.47412	1338.26807	1625.23596	1370.01074	1316.71851	1635.13379	1436.71509	1364.35974	1440.08411	1407.72400	1396.09790	1149.66016	1447.04944	1218.56433	1375.98364	1447.31360	1174.06372	1222.17114	1342.43274	1407.91150	1251.09424	1602.65930	1295.37427	1392.86072	1679.83459	1319.42847	1205.09119	1679.25342	1320.62329	1054.94714	1705.90967	1274.19690	951.69824	1689.06372	1186.22595	842.92169	1713.56763	1241.02332	834.35699	1723.16760	1187.90015	768.29956	1291.19019	1268.15833	1412.67700	1173.76624	1319.18323	1220.41333	1165.34241	1326.19604	1095.56189	1130.75903	1299.67480	978.61151	1149.36292	1222.83069	858.76666	1106.33606	1263.56873	863.16003	1110.65344	1230.29834	782.87299	1524.20801	1231.94470	943.24457	1307.73914	1213.77698	949.12958	1454.30212	1413.95984	953.21295	1310.40540	1398.41992	954.24384	1584.24097	1249.72681	616.83069	1570.96765	1246.15601	480.98990	1582.29431	1299.58167	297.18307	1535.30762	1323.95081	77.35384	1478.80579	1362.83362	46.58279	1553.48645	1176.52319	40.50346	1240.42407	1198.51587	618.20129	1256.63989	1170.67651	462.93167	1251.13708	1310.56299	356.01743	1291.06323	1452.81238	205.44958	1346.83252	1508.50146	203.17717	1278.36707	1385.38391	79.31986	1420.32849	1220.65845	1722.77344	-3102.09082	1973.04675	1023.95227	-3140.78174	2012.52881	1021.98334			 
72	0.710	1511.27502	1218.61011	1680.49402	1400.29590	1194.58911	1690.95691	1489.64600	1329.29041	1625.58606	1372.12622	1308.09534	1635.51538	1439.15820	1355.90393	1440.45801	1410.16162	1388.06104	1150.05835	1448.91846	1210.08691	1376.32080	1449.04114	1165.78625	1222.43896	1344.86707	1400.00232	1251.57227	1604.77417	1286.27173	1393.28723	1682.50220	1309.45813	1205.70203	1682.60168	1309.45764	1055.30762	1709.16333	1260.42920	953.03198	1692.51062	1169.48181	846.82068	1716.54834	1224.12842	836.60858	1726.88879	1169.21973	772.40759	1293.54602	1260.34265	1413.05688	1176.15295	1312.33191	1220.77026	1168.04187	1319.91919	1096.15527	1132.68347	1295.57251	979.19757	1150.49634	1221.45935	857.52460	1107.60059	1262.04016	863.11780	1111.61340	1231.43372	781.59497	1526.45654	1223.97424	943.58954	1310.22473	1205.96606	949.88776	1456.43921	1406.02185	953.59540	1312.41980	1390.54541	954.97321	1584.81189	1242.81140	616.11774	1572.05859	1243.07458	480.48511	1582.97839	1297.89526	297.20856	1535.46436	1323.90930	77.49563	1478.74683	1362.74915	46.66455	1553.64282	1176.49231	40.36536	1242.87683	1186.65796	619.83374	1259.36279	1156.78552	465.07898	1254.62585	1294.31726	355.21542	1294.88391	1431.55542	200.03691	1350.06665	1487.95715	195.13025	1282.93799	1357.39819	77.79333	1422.10925	1211.75208	1722.88306	-3101.93823	1973.14221	1023.40411	-3140.67065	2012.48328	1022.02509			 
73	0.720	1512.99731	1209.47888	1680.57678	1401.98730	1185.66602	1691.05273	1491.75024	1320.30420	1625.94812	1374.23621	1299.47559	1635.77893	1441.42847	1347.43042	1440.75757	1412.57349	1379.95166	1150.33081	1450.59998	1201.63904	1376.54614	1450.76123	1157.42468	1222.66626	1347.16919	1392.02734	1251.98035	1606.76318	1277.19519	1393.64526	1685.18689	1299.58789	1206.32031	1685.79089	1298.37170	1055.58545	1712.32971	1246.68237	954.36902	1695.76160	1152.76318	850.81793	1719.61841	1207.16431	839.03046	1730.42932	1150.53491	776.68250	1295.42969	1252.50696	1413.32373	1178.51770	1305.72339	1221.11768	1170.61096	1313.70874	1096.67017	1134.56189	1291.50781	979.70386	1151.46191	1219.98376	856.27020	1108.62878	1260.50037	863.26556	1112.40540	1232.10413	780.35236	1528.59277	1215.93433	943.63013	1312.40149	1198.50720	950.46771	1458.47449	1397.99719	953.82813	1314.47729	1382.63623	955.62994	1586.10266	1237.91003	615.57123	1573.08105	1240.15576	479.96887	1583.46704	1296.77063	297.13040	1535.50012	1323.74243	77.50832	1478.71423	1362.67688	46.89467	1553.73413	1176.36121	40.23765	1245.19373	1175.43933	621.50238	1262.03467	1143.39185	467.26202	1257.66858	1278.09485	353.63693	1298.56226	1409.72144	193.83849	1353.31030	1466.48828	186.20412	1287.16272	1329.47595	75.96671	1423.91089	1202.74756	1723.03796	-3101.99927	1973.17395	1023.30701	-3140.73853	2012.50769	1022.04199			 
